<svg width="540" height="47" viewBox="0 0 540 47" fill="none" xmlns="http://www.w3.org/2000/svg">
<path d="M12.256 20.848H32.928V30.64H12.256V20.848ZM13.152 46H0.48V1.2H35.616V10.992H13.152V46ZM68.6145 46.896C62.0012 46.896 56.8385 45.0827 53.1265 41.456C49.4145 37.8293 47.5585 32.688 47.5585 26.032V1.2H60.2305V25.648C60.2305 29.488 60.9772 32.24 62.4705 33.904C64.0065 35.568 66.0972 36.4 68.7425 36.4C71.3878 36.4 73.4572 35.568 74.9505 33.904C76.4438 32.24 77.1905 29.488 77.1905 25.648V1.2H89.6705V26.032C89.6705 32.688 87.8145 37.8293 84.1025 41.456C80.3905 45.0827 75.2278 46.896 68.6145 46.896ZM104.655 46V1.2H115.087L139.791 31.024H134.863V1.2H147.279V46H136.847L112.143 16.176H117.071V46H104.655ZM162.617 46V1.2H183.801C188.751 1.2 193.103 2.11733 196.857 3.952C200.612 5.78667 203.535 8.368 205.625 11.696C207.759 15.024 208.826 18.992 208.826 23.6C208.826 28.1653 207.759 32.1333 205.625 35.504C203.535 38.832 200.612 41.4133 196.857 43.248C193.103 45.0827 188.751 46 183.801 46H162.617ZM175.289 35.888H183.289C185.849 35.888 188.068 35.4187 189.945 34.48C191.865 33.4987 193.359 32.0907 194.425 30.256C195.492 28.3787 196.025 26.16 196.025 23.6C196.025 20.9973 195.492 18.7787 194.425 16.944C193.359 15.1093 191.865 13.7227 189.945 12.784C188.068 11.8027 185.849 11.312 183.289 11.312H175.289V35.888Z" fill="black"/>
<path d="M231.465 46L216.937 1.2H229.993L242.217 39.984H235.625L248.489 1.2H260.137L272.297 39.984H265.961L278.569 1.2H290.665L276.137 46H262.569L252.201 13.04H255.849L245.033 46H231.465ZM294.666 46L314.443 1.2H326.923L346.763 46H333.579L318.091 7.408H323.083L307.595 46H294.666ZM305.483 37.296L308.747 27.952H330.635L333.899 37.296H305.483ZM368.015 46L348.879 1.2H362.575L378.703 39.984H370.639L387.151 1.2H399.695L380.495 46H368.015ZM420.365 18.544H441.165V28.016H420.365V18.544ZM421.261 36.208H444.685V46H408.717V1.2H443.853V10.992H421.261V36.208ZM473.862 46.896C470.192 46.896 466.651 46.448 463.238 45.552C459.867 44.6133 457.115 43.4187 454.982 41.968L459.142 32.624C461.147 33.904 463.451 34.9707 466.054 35.824C468.699 36.6347 471.323 37.04 473.926 37.04C475.675 37.04 477.083 36.8907 478.15 36.592C479.216 36.2507 479.984 35.824 480.454 35.312C480.966 34.7573 481.222 34.1173 481.222 33.392C481.222 32.368 480.752 31.5573 479.814 30.96C478.875 30.3627 477.659 29.872 476.166 29.488C474.672 29.104 473.008 28.72 471.174 28.336C469.382 27.952 467.568 27.4613 465.734 26.864C463.942 26.2667 462.299 25.4987 460.806 24.56C459.312 23.5787 458.096 22.32 457.158 20.784C456.219 19.2053 455.75 17.2213 455.75 14.832C455.75 12.144 456.475 9.712 457.926 7.536C459.419 5.36 461.638 3.61067 464.582 2.288C467.526 0.965331 471.195 0.303997 475.59 0.303997C478.534 0.303997 481.414 0.645331 484.23 1.328C487.088 1.968 489.627 2.928 491.846 4.208L487.942 13.616C485.808 12.464 483.696 11.6107 481.606 11.056C479.515 10.4587 477.488 10.16 475.526 10.16C473.776 10.16 472.368 10.352 471.302 10.736C470.235 11.0773 469.467 11.5467 468.998 12.144C468.528 12.7413 468.294 13.424 468.294 14.192C468.294 15.1733 468.742 15.9627 469.638 16.56C470.576 17.1147 471.792 17.584 473.286 17.968C474.822 18.3093 476.486 18.672 478.278 19.056C480.112 19.44 481.926 19.9307 483.718 20.528C485.552 21.0827 487.216 21.8507 488.71 22.832C490.203 23.7707 491.398 25.0293 492.294 26.608C493.232 28.144 493.702 30.0853 493.702 32.432C493.702 35.0347 492.955 37.4453 491.462 39.664C490.011 41.84 487.814 43.5893 484.87 44.912C481.968 46.2347 478.299 46.896 473.862 46.896ZM505.955 46V1.2H518.627V35.952H540.003V46H505.955Z" fill="#2424E9"/>
</svg>
